<svg xmlns="http://www.w3.org/2000/svg" viewBox="0 0 1726.47 476.04"><defs><style>.cls-1{fill:#c90100;}</style></defs><g id="Capa_2" data-name="Capa 2"><g id="Capa_1-2" data-name="Capa 1"><path class="cls-1" d="M416.74,143.25H0V0H416.74ZM307,309.53H142.09V476H0V166.28H307Z"/><path class="cls-1" d="M595.34,143.25H476.27V0H595.34Zm0,332.79H476.27V166.28H595.34Z"/><path class="cls-1" d="M1071.61,143.25H654.87q0-65.94,26.51-101.46Q712.77,0,780.91,0H945.56q59.54,0,88.61,19.27Q1059.28,36,1067,70.58,1071.61,91.72,1071.61,143.25Zm0,205.58q0,42.33-4.65,61.17-7.68,31.62-32.56,47.21Q1004.62,476,945.56,476H780.91q-59.53,0-88.6-19.3Q667.19,440,659.52,405.35q-4.66-21.17-4.65-72.79H929.52v-23H780.91q-59.53,0-88.6-19.3-25.12-16.74-32.79-51.39-4.66-21.17-4.65-72.56H945.56q58.83,0,88.61,18.84,24.87,15.81,32.79,47.2,4.65,18.84,4.65,61.17Z"/><path class="cls-1" d="M1547.88,143.25H1131.13V0h416.75Zm0,332.79H1131.13V166.28h307V309.53H1273.23v23h274.65Z"/><path class="cls-1" d="M1726.47,143.25H1607.4V0h119.07Zm0,332.79H1607.4V166.28h119.07Z"/></g></g></svg>