<svg width="460" height="69" viewBox="0 0 460 69" fill="none" xmlns="http://www.w3.org/2000/svg">
<rect width="154" height="69" fill="#D1001F"/>
<path d="M30.6777 18.7451L17.1426 60H6.23926L24.7305 10.2344H31.6689L30.6777 18.7451ZM41.9229 60L28.3535 18.7451L27.2598 10.2344H34.2666L52.8604 60H41.9229ZM41.3076 41.4746V49.5068H15.0234V41.4746H41.3076ZM83.3828 46.9775C83.3828 46.0889 83.2461 45.2913 82.9727 44.585C82.722 43.8558 82.2435 43.195 81.5371 42.6025C80.8307 41.9873 79.8395 41.3835 78.5635 40.791C77.2874 40.1986 75.6354 39.5833 73.6074 38.9453C71.3516 38.2161 69.2096 37.3958 67.1816 36.4844C65.1764 35.5729 63.3991 34.5133 61.8496 33.3057C60.3229 32.0752 59.1152 30.651 58.2266 29.0332C57.3607 27.4154 56.9277 25.5355 56.9277 23.3936C56.9277 21.32 57.3835 19.4401 58.2949 17.7539C59.2064 16.0449 60.4824 14.5866 62.123 13.3789C63.7637 12.1484 65.7005 11.2028 67.9336 10.542C70.1895 9.88118 72.6618 9.55078 75.3506 9.55078C79.0192 9.55078 82.2207 10.2116 84.9551 11.5332C87.6895 12.8548 89.8086 14.6663 91.3125 16.9678C92.8392 19.2692 93.6025 21.901 93.6025 24.8633H83.417C83.417 23.4049 83.1094 22.1289 82.4941 21.0352C81.9017 19.9186 80.9902 19.0413 79.7598 18.4033C78.5521 17.7653 77.0254 17.4463 75.1797 17.4463C73.4023 17.4463 71.9212 17.7197 70.7363 18.2666C69.5514 18.7907 68.6628 19.5085 68.0703 20.4199C67.4779 21.3086 67.1816 22.3112 67.1816 23.4277C67.1816 24.2708 67.3867 25.0342 67.7969 25.7178C68.2298 26.4014 68.8678 27.0394 69.7109 27.6318C70.554 28.2243 71.5908 28.7826 72.8213 29.3066C74.0518 29.8307 75.4759 30.3434 77.0938 30.8447C79.8053 31.665 82.1865 32.5879 84.2373 33.6133C86.3109 34.6387 88.0426 35.7894 89.4326 37.0654C90.8226 38.3415 91.8708 39.7884 92.5771 41.4062C93.2835 43.0241 93.6367 44.8584 93.6367 46.9092C93.6367 49.0739 93.2152 51.0107 92.3721 52.7197C91.529 54.4287 90.3099 55.8757 88.7148 57.0605C87.1198 58.2454 85.2171 59.1455 83.0068 59.7607C80.7965 60.376 78.3242 60.6836 75.5898 60.6836C73.1289 60.6836 70.7021 60.3646 68.3096 59.7266C65.917 59.0658 63.7409 58.0745 61.7812 56.7529C59.8444 55.4313 58.2949 53.7451 57.1328 51.6943C55.9707 49.6436 55.3896 47.2168 55.3896 44.4141H65.6777C65.6777 45.9635 65.917 47.2738 66.3955 48.3447C66.874 49.4157 67.5462 50.2816 68.4121 50.9424C69.3008 51.6032 70.349 52.0817 71.5566 52.3779C72.7871 52.6742 74.1315 52.8223 75.5898 52.8223C77.3672 52.8223 78.8255 52.5716 79.9648 52.0703C81.127 51.569 81.9814 50.874 82.5283 49.9854C83.098 49.0967 83.3828 48.0941 83.3828 46.9775ZM141.488 33.9551V36.3135C141.488 40.096 140.976 43.4912 139.95 46.499C138.925 49.5068 137.478 52.0703 135.609 54.1895C133.741 56.2858 131.508 57.8923 128.91 59.0088C126.335 60.1253 123.476 60.6836 120.331 60.6836C117.209 60.6836 114.35 60.1253 111.752 59.0088C109.177 57.8923 106.944 56.2858 105.053 54.1895C103.161 52.0703 101.692 49.5068 100.644 46.499C99.6182 43.4912 99.1055 40.096 99.1055 36.3135V33.9551C99.1055 30.1497 99.6182 26.7546 100.644 23.7695C101.669 20.7617 103.116 18.1982 104.984 16.0791C106.876 13.96 109.109 12.3421 111.684 11.2256C114.281 10.109 117.141 9.55078 120.263 9.55078C123.407 9.55078 126.267 10.109 128.842 11.2256C131.439 12.3421 133.673 13.96 135.541 16.0791C137.432 18.1982 138.891 20.7617 139.916 23.7695C140.964 26.7546 141.488 30.1497 141.488 33.9551ZM131.132 36.3135V33.8867C131.132 31.2435 130.893 28.9193 130.414 26.9141C129.936 24.9089 129.229 23.2227 128.295 21.8555C127.361 20.4883 126.221 19.4629 124.877 18.7793C123.533 18.0729 121.994 17.7197 120.263 17.7197C118.531 17.7197 116.993 18.0729 115.648 18.7793C114.327 19.4629 113.199 20.4883 112.265 21.8555C111.353 23.2227 110.658 24.9089 110.18 26.9141C109.701 28.9193 109.462 31.2435 109.462 33.8867V36.3135C109.462 38.9339 109.701 41.2581 110.18 43.2861C110.658 45.2913 111.365 46.9889 112.299 48.3789C113.233 49.7461 114.372 50.7829 115.717 51.4893C117.061 52.1956 118.599 52.5488 120.331 52.5488C122.063 52.5488 123.601 52.1956 124.945 51.4893C126.29 50.7829 127.418 49.7461 128.329 48.3789C129.241 46.9889 129.936 45.2913 130.414 43.2861C130.893 41.2581 131.132 38.9339 131.132 36.3135Z" fill="white"/>
<path d="M196.042 51.7715V61H169.519V51.7715H196.042ZM173.791 11.2344V61H161.794V11.2344H173.791ZM192.624 30.9902V39.9111H169.519V30.9902H192.624ZM196.145 11.2344V20.4971H169.519V11.2344H196.145ZM226.599 47.7725C226.599 46.9977 226.485 46.3027 226.257 45.6875C226.029 45.0495 225.607 44.457 224.992 43.9102C224.377 43.3633 223.488 42.8164 222.326 42.2695C221.187 41.6999 219.683 41.1074 217.814 40.4922C215.627 39.763 213.519 38.9427 211.491 38.0312C209.463 37.097 207.652 36.0146 206.057 34.7842C204.462 33.5309 203.197 32.0726 202.263 30.4092C201.328 28.723 200.861 26.7633 200.861 24.5303C200.861 22.3883 201.34 20.4629 202.297 18.7539C203.254 17.0221 204.587 15.5524 206.296 14.3447C208.028 13.1143 210.056 12.18 212.38 11.542C214.704 10.8812 217.245 10.5508 220.002 10.5508C223.648 10.5508 226.861 11.1888 229.641 12.4648C232.443 13.7181 234.631 15.5068 236.203 17.8311C237.798 20.1325 238.596 22.8555 238.596 26H226.667C226.667 24.7467 226.405 23.6416 225.881 22.6846C225.38 21.7275 224.616 20.9756 223.591 20.4287C222.565 19.8818 221.278 19.6084 219.729 19.6084C218.225 19.6084 216.96 19.8363 215.935 20.292C214.909 20.7477 214.134 21.363 213.61 22.1377C213.086 22.8896 212.824 23.7214 212.824 24.6328C212.824 25.3848 213.029 26.0684 213.439 26.6836C213.872 27.276 214.476 27.8343 215.251 28.3584C216.049 28.8825 217.006 29.3838 218.122 29.8623C219.261 30.3408 220.537 30.8079 221.95 31.2637C224.593 32.1068 226.94 33.0524 228.991 34.1006C231.065 35.126 232.808 36.2995 234.221 37.6211C235.656 38.9199 236.739 40.401 237.468 42.0645C238.22 43.7279 238.596 45.6077 238.596 47.7041C238.596 49.9372 238.163 51.9196 237.297 53.6514C236.431 55.3831 235.189 56.8529 233.571 58.0605C231.953 59.2454 230.017 60.1455 227.761 60.7607C225.505 61.376 222.987 61.6836 220.207 61.6836C217.655 61.6836 215.137 61.3646 212.653 60.7266C210.192 60.0658 207.959 59.0632 205.954 57.7188C203.949 56.3516 202.342 54.6084 201.135 52.4893C199.95 50.3473 199.357 47.8066 199.357 44.8672H211.389C211.389 46.3255 211.582 47.556 211.97 48.5586C212.357 49.5612 212.927 50.3701 213.679 50.9854C214.431 51.5778 215.354 52.0107 216.447 52.2842C217.541 52.5348 218.794 52.6602 220.207 52.6602C221.734 52.6602 222.964 52.4437 223.898 52.0107C224.833 51.555 225.516 50.9626 225.949 50.2334C226.382 49.4814 226.599 48.6611 226.599 47.7725ZM273.083 44.1494H285.046C284.886 47.613 283.952 50.6663 282.243 53.3096C280.534 55.9528 278.164 58.015 275.134 59.4961C272.126 60.9544 268.571 61.6836 264.47 61.6836C261.143 61.6836 258.169 61.1253 255.549 60.0088C252.951 58.8923 250.741 57.2858 248.918 55.1895C247.118 53.0931 245.739 50.5524 244.782 47.5674C243.848 44.5824 243.381 41.2214 243.381 37.4844V34.7842C243.381 31.0472 243.871 27.6862 244.851 24.7012C245.853 21.6934 247.266 19.1413 249.089 17.0449C250.935 14.9258 253.145 13.3079 255.72 12.1914C258.295 11.0749 261.154 10.5166 264.299 10.5166C268.628 10.5166 272.285 11.2913 275.271 12.8408C278.256 14.3903 280.568 16.5208 282.209 19.2324C283.85 21.9212 284.818 24.986 285.114 28.4268H273.151C273.106 26.5583 272.787 24.9974 272.194 23.7441C271.602 22.4681 270.668 21.5111 269.392 20.873C268.116 20.235 266.418 19.916 264.299 19.916C262.818 19.916 261.53 20.1895 260.437 20.7363C259.343 21.2832 258.431 22.1491 257.702 23.334C256.973 24.5189 256.426 26.057 256.062 27.9482C255.72 29.8167 255.549 32.0726 255.549 34.7158V37.4844C255.549 40.1276 255.708 42.3835 256.027 44.252C256.346 46.1204 256.859 47.6471 257.565 48.832C258.272 50.0169 259.183 50.8942 260.3 51.4639C261.439 52.0107 262.829 52.2842 264.47 52.2842C266.293 52.2842 267.831 51.9993 269.084 51.4297C270.337 50.8372 271.306 49.9486 271.989 48.7637C272.673 47.556 273.037 46.0179 273.083 44.1494ZM317.722 11.2344H329.719V43.7393C329.719 47.613 328.91 50.8942 327.292 53.583C325.674 56.249 323.407 58.2656 320.49 59.6328C317.574 61 314.144 61.6836 310.202 61.6836C306.306 61.6836 302.876 61 299.914 59.6328C296.975 58.2656 294.673 56.249 293.01 53.583C291.369 50.8942 290.549 47.613 290.549 43.7393V11.2344H302.58V43.7393C302.58 45.79 302.876 47.4648 303.469 48.7637C304.061 50.0397 304.927 50.974 306.066 51.5664C307.206 52.1589 308.584 52.4551 310.202 52.4551C311.843 52.4551 313.221 52.1589 314.338 51.5664C315.454 50.974 316.298 50.0397 316.867 48.7637C317.437 47.4648 317.722 45.79 317.722 43.7393V11.2344ZM371.521 51.7715V61H344.997V51.7715H371.521ZM349.27 11.2344V61H337.272V11.2344H349.27ZM368.103 30.9902V39.9111H344.997V30.9902H368.103ZM371.623 11.2344V20.4971H344.997V11.2344H371.623ZM409.323 51.7715V61H384.167V51.7715H409.323ZM388.439 11.2344V61H376.442V11.2344H388.439ZM436.154 21.6934L424.021 61H411.135L429.421 11.2344H437.59L436.154 21.6934ZM446.203 61L434.035 21.6934L432.463 11.2344H440.734L459.123 61H446.203ZM445.725 42.4404V51.7031H420.192V42.4404H445.725Z" fill="white"/>
</svg>
